<?xml version="1.0" encoding="UTF-8" standalone="no"?>
<!-- Created with Inkscape (http://www.inkscape.org/) -->

<svg
   width="169.33333mm"
   height="169.33333mm"
   viewBox="0 0 169.33333 169.33333"
   version="1.1"
   id="svg37563"
   inkscape:version="1.1 (c68e22c387, 2021-05-23)"
   sodipodi:docname="2020-nia-logo.svg"
   xmlns:inkscape="http://www.inkscape.org/namespaces/inkscape"
   xmlns:sodipodi="http://sodipodi.sourceforge.net/DTD/sodipodi-0.dtd"
   xmlns="http://www.w3.org/2000/svg"
   xmlns:svg="http://www.w3.org/2000/svg"
   xmlns:rdf="http://www.w3.org/1999/02/22-rdf-syntax-ns#"
   xmlns:cc="http://creativecommons.org/ns#"
   xmlns:dc="http://purl.org/dc/elements/1.1/">
  <title
     id="title41700">NIA Logo 2020</title>
  <sodipodi:namedview
     id="namedview37565"
     pagecolor="#000000"
     bordercolor="#666666"
     borderopacity="1.0"
     inkscape:pageshadow="2"
     inkscape:pageopacity="0"
     inkscape:pagecheckerboard="true"
     inkscape:document-units="mm"
     showgrid="false"
     fit-margin-top="0"
     fit-margin-left="0"
     fit-margin-right="0"
     fit-margin-bottom="0"
     inkscape:zoom="0.47838805"
     inkscape:cx="132.73743"
     inkscape:cy="249.79721"
     inkscape:window-width="1292"
     inkscape:window-height="745"
     inkscape:window-x="-8"
     inkscape:window-y="-8"
     inkscape:window-maximized="1"
     inkscape:current-layer="layer1" />
  <defs
     id="defs37560">
    <filter
       style="color-interpolation-filters:sRGB;"
       inkscape:label="Colorize"
       id="filter41460"
       x="0"
       y="0"
       width="1"
       height="1">
      <feComposite
         in2="SourceGraphic"
         operator="arithmetic"
         k1="0"
         k2="1"
         result="composite1"
         id="feComposite41446" />
      <feColorMatrix
         in="composite1"
         values="1"
         type="saturate"
         result="colormatrix1"
         id="feColorMatrix41448" />
      <feFlood
         flood-opacity="1"
         flood-color="rgb(0,0,0)"
         result="flood1"
         id="feFlood41450" />
      <feBlend
         in="flood1"
         in2="colormatrix1"
         mode="multiply"
         result="blend1"
         id="feBlend41452" />
      <feBlend
         in2="blend1"
         mode="screen"
         result="blend2"
         id="feBlend41454" />
      <feColorMatrix
         in="blend2"
         values="1"
         type="saturate"
         result="colormatrix2"
         id="feColorMatrix41456" />
      <feComposite
         in="colormatrix2"
         in2="SourceGraphic"
         operator="in"
         k2="1"
         result="composite2"
         id="feComposite41458" />
    </filter>
  </defs>
  <g
     inkscape:label="Layer 1"
     inkscape:groupmode="layer"
     id="layer1">
    <path
       style="fill:#ffffff;stroke-width:0.264583"
       d="m 80.830675,165.97321 c -1.018646,-0.0449 -3.500716,-0.26542 -5.515708,-0.48997 C 40.277442,161.57864 11.47727,135.26805 4.3735,100.67417 3.10943,94.518389 2.809,91.342897 2.809,84.137714 2.809,76.962209 3.10066,73.860017 4.36409,67.597388 10.011015,39.606415 30.734641,15.99894 57.811926,6.7118802 c 9.093636,-3.1189666 17.113151,-4.4317363 26.987498,-4.41777 13.340855,0.018869 24.488156,2.6521573 36.403906,8.5995718 19.58204,9.773821 34.15021,26.584835 41.117,47.447159 2.71065,8.117146 3.80812,14.511924 4.02458,23.4504 0.16137,6.663795 -0.0933,10.759789 -0.99949,16.077677 -3.79489,22.268912 -16.72149,42.079062 -35.65477,54.641322 -9.5907,6.36345 -21.16219,10.81721 -32.663039,12.57169 -3.544165,0.54067 -10.957909,1.11772 -13.154228,1.02386 -0.654844,-0.028 -2.024063,-0.0876 -3.042708,-0.13258 z"
       id="path41580" />
    <path
       style="fill:#009933;fill-opacity:1;stroke-width:0.264583"
       d="m 77.522747,165.9992 c -9.85876,-1.12665 -18.49365,-3.42967 -26.76661,-7.13893 -8.80554,-3.94805 -18.20052,-10.57879 -24.96859,-17.62219 C 17.054717,132.15 10.180577,120.69158 6.6905668,109.40558 1.4843168,92.569588 1.4237468,76.653578 6.5017768,59.796204 11.885627,41.923619 23.760977,26.196452 39.874717,15.598621 c 3.78164,-2.487139 10.40363,-5.9678984 14.26254,-7.4969054 4.82389,-1.911359 11.32183,-3.689299 17.72571,-4.8500353 3.74889,-0.6795062 4.36348,-0.7147167 12.67124,-0.7259553 8.43983,-0.011417 8.87254,0.013191 12.96458,0.7372983 14.361853,2.5414013 25.554863,7.2521777 36.254103,15.2581817 15.67257,11.727442 26.33865,28.034268 30.80477,47.095832 0.28981,1.236927 0.85361,4.153959 1.25289,6.482292 0.68135,3.973203 0.72596,4.721079 0.72596,12.170833 0,7.450891 -0.0445,8.197024 -0.72624,12.170832 -1.22196,7.122956 -3.31488,14.589266 -5.59958,19.976036 -3.0569,7.20742 -8.47502,15.82566 -13.61986,21.66419 -11.3336,12.86174 -25.83188,21.69665 -42.21141,25.72265 -7.074863,1.73896 -10.440433,2.14338 -18.522293,2.2257 -4.07459,0.0415 -7.82506,0.0278 -8.33438,-0.0304 z m 15.47813,-1.71703 c 18.684713,-1.83177 36.390863,-10.49708 49.741673,-24.34334 3.74853,-3.88764 5.92485,-6.60633 9.08649,-11.35096 6.51525,-9.77737 10.57046,-20.3177 12.52064,-32.543746 0.54201,-3.397973 0.61132,-4.743681 0.60645,-11.773962 -0.004,-6.163106 -0.10771,-8.60915 -0.4627,-10.942034 -1.3905,-9.13797 -3.47641,-16.019531 -7.2094,-23.784279 -4.34958,-9.047252 -9.11983,-15.673361 -16.43618,-22.830628 -4.2477,-4.155349 -6.87059,-6.299869 -11.46676,-9.375451 C 118.49174,10.05104 107.00417,5.8724406 93.265457,4.2007209 89.347567,3.7239938 79.176027,3.8013749 75.013687,4.3395731 59.864427,6.2983996 46.271117,12.025564 34.395667,21.45285 c -3.52789,2.8006 -9.55109,8.816736 -12.42877,12.414188 -7.45919,9.32489 -13.1564802,21.140139 -15.7328502,32.627374 -7.32439,32.657082 6.1093202,66.171728 33.9824502,84.780018 15.48077,10.33507 33.85628,14.86337 52.78438,13.00774 z m -13.89063,-1.65049 c 0,-0.0481 0.51133,-0.45465 1.13628,-0.90346 1.64417,-1.18075 2.68145,-3.19886 2.69195,-5.2374 0.0108,-2.0997 -0.5562,-3.03212 -1.84385,-3.03212 -1.21206,0 -1.85437,0.91467 -1.62934,2.32023 0.20017,1.25021 1.07544,2.01065 2.08247,1.80925 0.99518,-0.19904 0.94688,0.2804 -0.0503,0.49942 -2.27287,0.49921 -3.90104,-1.66313 -2.79655,-3.71404 0.53329,-0.99027 1.378,-1.44403 2.68816,-1.44403 1.20783,0 1.85507,0.36311 2.34866,1.31762 0.82003,1.58576 0.37659,4.10426 -1.05255,5.97796 -0.82815,1.08576 -3.57492,2.93483 -3.57492,2.40657 z m 7.27966,-0.48615 c -2.31054,-1.81747 -1.77346,-5.57799 1.17529,-8.22917 0.76553,-0.68828 1.52776,-1.25141 1.69386,-1.25141 0.1661,0 -0.18639,0.44648 -0.78331,0.99219 -2.58039,2.35898 -3.22105,6.4419 -1.25365,7.98946 0.90385,0.71096 1.29512,0.68544 2.11878,-0.13822 0.57488,-0.57488 0.65922,-0.84816 0.53883,-1.7458 -0.20283,-1.51218 -1.12091,-2.42251 -2.25813,-2.23904 -0.74823,0.12072 -0.83327,0.0842 -0.56292,-0.24153 0.49898,-0.60123 2.2285,-0.48035 3.03341,0.212 0.90135,0.77531 1.15497,2.42433 0.55214,3.59007 -0.81941,1.58455 -2.92227,2.10922 -4.2543,1.06145 z m -11.51299,-0.22016 c -0.3638,-0.11651 -1.10092,-0.22371 -1.63803,-0.23821 -1.1853,-0.032 -1.65582,-0.55554 -0.49929,-0.55554 0.92941,0 0.86371,0.17682 1.5731,-4.23334 0.2692,-1.67349 0.40659,-3.13643 0.30533,-3.25097 -0.10126,-0.11455 -0.50115,-0.0877 -0.88865,0.0596 -0.3875,0.14733 -0.70454,0.16558 -0.70454,0.0406 0,-0.23965 2.8656,-1.48867 3.01823,-1.31554 0.0488,0.0554 -0.18799,1.64855 -0.52631,3.54032 -0.79175,4.4273 -0.8115,5.42861 -0.11067,5.61188 0.29104,0.0761 0.52916,0.24356 0.52916,0.37211 0,0.26748 -0.13945,0.26341 -1.05833,-0.0309 z m 17.82978,0.0621 c -0.35208,-0.23265 -0.63447,-1.91418 -0.32146,-1.91418 0.12032,0 0.21876,0.11056 0.21876,0.24569 0,0.46401 0.83206,1.07723 1.46166,1.07723 1.03691,0 1.93485,-0.55408 2.21903,-1.36928 0.47459,-1.36143 -0.38218,-2.61417 -2.09319,-3.06058 l -0.92604,-0.2416 0.85606,-0.44721 c 1.4641,-0.76484 1.47646,-2.94095 0.0196,-3.45329 -0.87289,-0.30698 -2.06631,0.37762 -2.06631,1.18534 0,0.29628 -0.11906,0.4651 -0.26458,0.37516 -0.14552,-0.0899 -0.26459,-0.46022 -0.26459,-0.82286 0,-1.28451 2.78406,-1.8856 4.06536,-0.87773 0.85044,0.66896 0.91748,1.74599 0.16798,2.69883 -0.6363,0.80893 -0.65792,0.98614 -0.12027,0.98614 0.2249,0 0.70115,0.29224 1.05833,0.64943 0.82904,0.82903 0.88702,2.5071 0.12368,3.57911 -0.80548,1.13119 -3.27102,1.96007 -4.13404,1.3898 z m -15.44853,-11.28615 c -15.00134,-1.73522 -28.26805,-8.0229 -39.1218,-18.54158 -21.19546,-20.54111 -26.3609,-52.04913 -12.86002,-78.443177 3.05739,-5.977157 8.30168,-13.088035 10.58923,-14.358225 4.26749,-2.369587 9.62648,-2.553515 14.05256,-0.482304 3.62506,1.696371 5.62707,3.751239 6.72209,6.899587 0.54639,1.57093 0.60396,2.270512 0.67484,8.19975 0.18145,15.179561 0.46281,18.071435 2.07572,21.334936 2.60605,5.27299 7.5774,7.11432 22.76217,8.430847 7.95765,0.689933 11.25564,1.52754 14.50393,3.68363 1.93737,1.285954 3.21238,2.761128 4.248223,4.91517 l 0.82702,1.719791 0.001,12.832285 c 10e-4,11.37164 0.0533,13.01578 0.45947,14.44428 2.4025,8.45055 7.65351,11.58911 16.76875,10.02278 5.67257,-0.97475 10.02319,-3.24084 13.06691,-6.80612 l 0.84705,-0.99219 h -0.98837 c -1.3495,0 -2.66589,-0.86535 -3.03978,-1.99825 -0.18933,-0.57368 -0.38206,-4.75895 -0.51425,-11.16747 -0.18877,-9.15137 -0.27075,-10.471096 -0.76493,-12.313776 -1.51295,-5.641413 -4.92924,-9.264043 -10.35791,-10.983504 -3.2548,-1.030917 -6.88805,-1.47515 -15.47812,-1.892485 -5.573913,-0.270799 -7.300043,-0.500386 -10.318763,-1.372463 -3.84087,-1.109591 -5.39028,-2.723446 -6.57733,-6.850941 -1.09193,-3.796752 -1.30655,-6.717826 -1.34048,-18.24402 -0.0306,-10.388378 -0.0498,-10.770087 -0.63075,-12.498956 -0.8059,-2.398448 -2.53854,-4.868635 -4.26089,-6.074664 -0.76884,-0.538353 -1.53498,-1.02807 -1.70255,-1.088255 -0.16756,-0.06019 -0.22334,-0.197128 -0.12395,-0.304313 0.59029,-0.636598 5.06105,2.36483 6.67565,4.481676 1.43188,1.87729 2.25657,4.373607 2.68645,8.131728 0.095,0.830919 0.19861,6.188731 0.23016,11.90625 0.0599,10.861346 0.16758,12.071 1.28757,14.468728 1.15898,2.48121 3.55668,4.018169 7.26909,4.659593 1.12381,0.19417 4.24594,0.428975 6.938083,0.521788 11.26344,0.388321 15.69197,1.185598 19.018,3.423851 1.15576,0.777764 1.2702,0.808638 1.15036,0.310319 -0.20501,-0.852514 -1.00535,-1.622761 -4.16107,-4.004633 -1.60073,-1.208196 -3.18065,-2.603579 -3.51092,-3.10085 -1.76714,-2.66061 -2.32385,-6.43676 -2.70072,-18.318721 -0.30531,-9.625663 -0.54554,-12.228395 -1.35931,-14.727112 -1.31597,-4.040725 -4.16071,-7.332454 -7.9435,-9.191631 -4.321173,-2.123783 -4.675323,-2.162204 -19.542843,-2.120135 -7.20328,0.02037 -19.94297,0.113623 -28.31042,0.207201 -8.36745,0.09358 -15.26315,0.139692 -15.32378,0.102478 -0.18114,-0.111183 1.77822,-1.780519 4.87274,-4.151474 9.54156,-7.310539 20.03864,-11.628072 32.25738,-13.267724 3.99164,-0.535643 12.59265,-0.526035 16.68008,0.01863 14.475173,1.928879 27.308803,8.071176 37.731573,18.058687 16.88108,16.176112 23.9873,39.576811 19.02282,62.641912 -2.01737,9.372716 -7.06989,19.800386 -13.39015,27.635316 -10.23412,12.68676 -25.50005,21.36126 -42.163163,23.9582 -3.77574,0.58845 -12.9738,0.74356 -16.93333,0.28556 z m 28.495773,-18.96697 c -0.78481,-0.45661 -3.59347,-4.15789 -4.4717,-5.89284 -1.615333,-3.1911 -1.606403,-3.09997 -1.662253,-16.9651 -0.0497,-12.342686 -0.0675,-12.744666 -0.63077,-14.287498 -1.28265,-3.513066 -3.91173,-6.145281 -7.24475,-7.253388 -3.53484,-1.1752 -12.53519,-1.986934 -22.02693,-1.986587 -8.35839,2.65e-4 -11.51186,0.306316 -16.27187,1.579017 -5.43619,1.453494 -8.39901,3.640111 -10.28606,7.591304 -2.03231,4.255326 -2.2117,5.462486 -2.38918,16.076942 -0.11058,6.61356 -0.25192,9.55812 -0.47767,9.95174 -0.66057,1.15176 -2.17148,2.21909 -3.14132,2.21909 -1.15869,0 -1.05879,0.22058 1.09957,2.42771 2.81734,2.88102 6.15282,4.77572 10.26507,5.83103 3.15138,0.80872 8.61304,0.79093 11.00073,-0.0358 3.35985,-1.16338 5.79425,-3.41813 6.94128,-6.42901 0.49376,-1.29608 0.52958,-1.97046 0.49578,-9.33451 -0.0382,-8.32866 0.28269,-14.19911 0.93126,-17.035646 0.561,-2.45358 2.09732,-5.17644 4.12228,-7.306019 3.1831,-3.347556 6.48081,-4.722296 9.94912,-4.147576 2.5106,0.416017 5.1897,1.824087 7.4469,3.913912 1.04375,0.966351 1.84447,1.81025 1.77939,1.875335 -0.0651,0.06508 -1.27904,-0.253471 -2.69767,-0.707901 -1.41864,-0.454429 -3.50944,-0.957767 -4.64623,-1.118531 -3.9624,-0.560356 -7.69759,0.576892 -10.15263,3.091151 -1.65819,1.698199 -2.5491,3.334329 -3.46304,6.359835 -0.66457,2.19998 -0.72655,2.81215 -0.83919,8.28777 -0.23554,11.45008 0.94438,16.26211 4.8859,19.92614 1.46931,1.36586 2.66536,2.04675 4.84029,2.75548 1.27155,0.41435 2.90775,0.49474 12.96458,0.63698 6.33016,0.0895 12.104703,0.18331 12.832303,0.2084 1.03407,0.0357 1.21896,-0.0149 0.84681,-0.23139 z m 44.36019,-6.50867 c 0.0261,-0.32108 -1.01572,-1.03296 -3.6015,-2.46085 -2.00103,-1.10499 -3.76523,-2.13607 -3.92044,-2.29128 -0.28731,-0.2873 3.23611,-1.37773 7.75713,-2.40067 1.12778,-0.25517 2.05052,-0.52639 2.05052,-0.60271 0,-0.0763 -1.25159,-0.7612 -2.78131,-1.52198 -2.68873,-1.3372 -3.83328,-1.67121 -3.83328,-1.11866 0,0.14553 -0.11902,0.26459 -0.2645,0.26459 -0.14548,0 0.0629,-0.58928 0.46302,-1.30951 0.63267,-1.13878 0.74579,-1.23364 0.86761,-0.72761 0.10112,0.42006 1.1675,1.15023 3.83407,2.62526 2.03169,1.12384 3.72962,2.15026 3.77317,2.28093 0.0436,0.13067 -2.18779,0.80292 -4.95854,1.4939 -2.77076,0.69097 -5.03774,1.30074 -5.03774,1.35505 0,0.0543 1.41114,0.80612 3.13587,1.6707 2.94729,1.47743 3.16339,1.54518 3.59322,1.12652 0.3575,-0.3482 0.32565,-0.17108 -0.14589,0.81132 -0.61617,1.28373 -0.99713,1.61298 -0.93141,0.805 z M 18.405807,124.55297 c 0.10197,-0.32742 0.8758,-2.61755 1.71963,-5.08917 0.84383,-2.47162 1.50999,-4.51812 1.48035,-4.54776 -0.0296,-0.0296 -1.35912,0.69771 -2.9544,1.61632 -2.10855,1.21418 -2.94043,1.83933 -3.04672,2.28959 -0.13423,0.56861 -0.19471,0.52634 -0.73782,-0.51565 -0.57534,-1.1038 -0.57702,-1.13039 -0.0612,-0.96666 0.37137,0.11787 1.64228,-0.4383 4.2383,-1.85474 2.03933,-1.11271 3.81655,-1.98325 3.94937,-1.93454 0.13283,0.0487 -0.49194,2.32097 -1.38837,5.04949 -0.89643,2.72851 -1.61249,4.96093 -1.59125,4.96093 0.0213,0 1.35309,-0.77766 2.95965,-1.72813 2.1301,-1.26022 2.9459,-1.88707 3.01292,-2.31511 0.0788,-0.50325 0.1756,-0.42809 0.67877,0.52697 0.71149,1.35051 0.72504,1.49039 0.10698,1.10441 -0.40002,-0.24983 -1.13269,0.0579 -4.40369,1.84984 -2.15811,1.18224 -3.97425,2.14952 -4.03588,2.14952 -0.0616,0 -0.0286,-0.26789 0.0733,-0.59531 z M 152.30344,112.6602 c -1.43493,-0.39127 -3.21537,-2.17638 -3.59806,-3.60749 -0.50457,-1.88692 0.32519,-4.25534 1.87829,-5.36125 0.9988,-0.71121 3.18718,-0.96798 4.51498,-0.52977 2.21718,0.73174 3.81399,3.64176 3.17275,5.78202 -0.88835,2.96506 -3.27441,4.45095 -5.96796,3.71649 z m 3.97813,-1.67246 c 1.45038,-0.95033 2.01216,-2.90733 1.27843,-4.45354 -1.15547,-2.43498 -5.35293,-3.20517 -7.30025,-1.33952 -2.14867,2.05856 -1.25894,4.92332 1.8755,6.03875 1.35558,0.4824 3.20211,0.37298 4.14632,-0.24569 z m -134.585903,0.5345 c -0.27101,-0.32655 -1.19487,-0.39687 -5.21382,-0.39687 -2.68644,0 -4.84476,-0.0994 -4.79625,-0.22088 0.0485,-0.12149 1.57648,-1.53094 3.39549,-3.13213 3.82143,-3.36382 4.08143,-3.64462 3.87436,-4.18425 -0.0845,-0.22013 -0.0571,-0.40024 0.0608,-0.40024 0.21085,0 0.94442,2.10392 0.77952,2.2357 -0.0465,0.0371 -0.27703,0.17436 -0.51235,0.30496 -0.23533,0.13061 -0.86875,0.6281 -1.40761,1.10556 l -0.97973,0.86809 0.43668,1.31472 0.43668,1.31472 h 1.55309 c 1.20402,0 1.61132,-0.10407 1.81221,-0.46302 0.23283,-0.41604 0.28428,-0.3959 0.50698,0.19843 0.68421,1.82593 0.69929,2.23281 0.0539,1.45521 z m -4.61202,-1.63551 c -0.084,-0.21891 -0.22467,-0.68462 -0.31258,-1.0349 -0.0879,-0.35028 -0.22327,-0.63688 -0.30078,-0.63688 -0.21279,0 -2.71204,1.93928 -2.71268,2.10489 -3.1e-4,0.0792 0.7823,0.10376 1.73911,0.0545 1.41801,-0.073 1.71143,-0.16317 1.58693,-0.4876 z M 9.7866168,105.1061 c -0.002,-0.40019 -0.33179,-2.06022 -0.73388,-3.68897 -0.72303,-2.928726 -0.72518,-2.962936 -0.19564,-3.105236 0.86495,-0.23242 1.01761,-0.17581 0.66655,0.2472 -0.3018,0.36365 -0.20932,2.222036 0.13859,2.784966 0.15283,0.24728 7.5084702,-1.508536 7.9884302,-1.906866 0.2007,-0.16657 0.3037,-0.46237 0.22889,-0.65734 -0.0748,-0.19497 -0.0359,-0.35448 0.0864,-0.35448 0.12235,0 0.29695,0.46584 0.388,1.0352 0.091,0.569356 0.24258,1.235996 0.33676,1.481406 0.14557,0.37936 0.0961,0.40005 -0.33016,0.13812 -0.40181,-0.2469 -1.26331,-0.12759 -4.33784,0.60076 l -3.83646,0.90885 0.0565,0.7621 c 0.10338,1.394 0.35052,1.97335 0.94359,2.21199 0.50423,0.2029 0.44692,0.23873 -0.40479,0.25313 -0.9094202,0.0154 -0.9924302,-0.0439 -0.9949902,-0.71083 z M 159.79904,100.80506 c -0.23752,-0.24195 -2.01945,-0.73586 -4.29396,-1.190176 -3.85413,-0.76984 -3.89163,-0.77206 -4.31194,-0.25545 -0.38404,0.47203 -0.40944,0.47533 -0.26954,0.035 0.085,-0.26738 0.22921,-0.95359 0.32057,-1.5249 0.14234,-0.8902 0.21161,-0.97652 0.48432,-0.60356 0.20265,0.27714 1.55938,0.70908 3.73593,1.18938 3.78446,0.83512 4.62068,0.91018 5.0753,0.45555 0.23458,-0.23457 0.25182,-0.0923 0.0721,0.59531 -0.12984,0.496946 -0.2745,1.085536 -0.32145,1.307986 -0.0761,0.3603 -0.1297,0.3593 -0.49138,-0.009 z m 0.14142,-5.025526 c -0.0899,-0.14552 0.0198,-0.26458 0.24393,-0.26458 0.39563,0 0.48974,-0.24415 0.79036,-2.050521 0.12527,-0.752719 0.0697,-0.86165 -0.44559,-0.873975 -0.32378,-0.0078 -2.13615,-0.171317 -4.02748,-0.363497 -3.65143,-0.371026 -4.10184,-0.33614 -4.10184,0.31769 0,0.226965 -0.0718,0.34091 -0.15945,0.253214 -0.0877,-0.0877 -0.0757,-0.768678 0.0267,-1.513289 0.15066,-1.095471 0.24421,-1.277541 0.49018,-0.954027 0.21867,0.287621 1.41122,0.514548 4.24974,0.808675 2.17017,0.224872 3.97473,0.378672 4.01014,0.341773 0.0354,-0.0369 0.1457,-0.613481 0.24509,-1.281298 0.13908,-0.934532 0.0838,-1.311076 -0.23984,-1.634746 -0.62008,-0.620088 -0.51729,-0.729118 0.38943,-0.413036 0.51198,0.178477 0.75914,0.414785 0.67182,0.642324 -0.076,0.197985 -0.27975,1.910201 -0.45283,3.804925 -0.30353,3.322738 -0.33619,3.444958 -0.92079,3.444958 -0.33335,0 -0.67968,-0.11907 -0.76962,-0.26459 z M 7.9680268,95.349594 c -0.0169,-0.30924 -0.11031,-0.964081 -0.20761,-1.455213 -0.15914,-0.803267 -0.1336,-0.857351 0.25429,-0.538385 0.36128,0.297082 0.97994,0.285588 3.8149402,-0.07087 4.73131,-0.594895 4.83894,-0.623446 4.83894,-1.283695 0,-1.014561 0.46009,-0.102169 0.59453,1.178996 0.11878,1.131946 0.09,1.212469 -0.33786,0.945267 -0.34761,-0.217086 -1.43305,-0.173178 -4.22728,0.171005 -4.2531802,0.523888 -4.4216902,0.567081 -4.5826002,1.174635 -0.0856,0.32303 -0.12484,0.29057 -0.14735,-0.12174 z m 1.62037,-6.213776 c -3.24644,-1.60696 -3.52513,-6.311482 -0.50623,-8.545494 0.59722,-0.441952 1.1346002,-0.553495 2.6665202,-0.553495 1.69634,0 2.03171,0.08631 2.89551,0.74522 1.70028,1.296993 2.42505,3.022367 2.11038,5.023958 -0.48869,3.108492 -4.1636,4.816063 -7.1661802,3.329811 z m 4.0904002,-1.06988 c 0.46567,-0.140915 1.20981,-0.669801 1.65364,-1.175303 0.66946,-0.762466 0.80698,-1.144558 0.80698,-2.242114 0,-2.361427 -1.22848,-3.421067 -3.96615,-3.421067 -3.4894402,0 -5.5497502,2.372405 -4.4162502,5.085238 0.82716,1.979676 3.0240802,2.630112 5.9217802,1.753246 z m 139.004673,-1.017651 -0.0145,-1.190625 1.78366,-0.663517 1.78366,-0.663517 v -1.437399 -1.437402 l -1.5875,-0.472 c -0.94304,-0.280387 -1.6233,-0.36734 -1.67569,-0.214189 -0.25712,0.751631 -0.44097,0.03507 -0.44097,-1.718693 v -1.976438 l 1.68146,-1.696738 c 1.54522,-1.559251 1.66661,-1.764408 1.49804,-2.531872 -0.13435,-0.611733 -0.30105,-0.800989 -0.62313,-0.707485 -0.24184,0.07021 -1.00525,0.207483 -1.69648,0.305054 -0.99247,0.140097 -1.25677,0.282371 -1.25677,0.676529 0,0.274518 -0.11906,0.499126 -0.26458,0.499126 -0.14552,0 -0.26621,-0.386954 -0.2682,-0.859896 -0.002,-0.472943 -0.0764,-1.157552 -0.16536,-1.521354 -0.1478,-0.604449 -0.13018,-0.620858 0.20439,-0.190395 0.35038,0.450803 0.53671,0.446498 4.33254,-0.100097 2.9983,-0.431752 4.07084,-0.68858 4.39426,-1.052242 0.40241,-0.452483 0.43766,-0.399344 0.59301,0.893847 0.32173,2.678152 0.21898,3.598735 -0.47966,4.29737 -0.81587,0.815872 -2.06216,0.849307 -3.3097,0.08879 l -0.91642,-0.558665 -1.5291,1.684134 c -1.56896,1.728046 -2.06509,2.712931 -1.6006,3.177423 0.14516,0.145156 2.15455,0.921073 4.46532,1.724258 2.31076,0.803185 4.29833,1.552504 4.41682,1.665153 0.11848,0.112646 -1.07215,0.718986 -2.64584,1.347419 -5.02007,2.004701 -6.16402,2.57832 -6.42167,3.220053 -0.20203,0.503193 -0.24492,0.405292 -0.257,-0.586631 z m 5.57104,-3.268229 c 0.49071,-0.196797 1.13033,-0.448601 1.42137,-0.559564 0.44101,-0.16814 0.30877,-0.281432 -0.79375,-0.680016 -2.01369,-0.727993 -2.14717,-0.692542 -2.02972,0.539059 0.11283,1.183148 0.15105,1.202243 1.4021,0.700521 z m 1.65027,-9.450974 c 0.54911,-0.43193 0.69714,-0.777021 0.69714,-1.625193 v -1.07682 l -1.59422,0.16663 c -2.84441,0.297299 -2.98393,0.370141 -2.80624,1.465148 0.0853,0.525476 0.35911,1.104631 0.60853,1.287008 0.70499,0.515501 2.30646,0.403328 3.09479,-0.216773 z M 16.403997,77.726326 c 0,-0.544169 -0.10835,-0.574757 -4.86163,-1.372436 -2.1645702,-0.363252 -3.9946902,-0.719564 -4.0669302,-0.791806 -0.0722,-0.07224 1.84117,-1.416693 4.2520302,-2.987675 2.41086,-1.570982 4.3898,-2.920576 4.39766,-2.999102 0.008,-0.07852 -1.50093,-0.349477 -3.35287,-0.60212 l -3.3671702,-0.459351 -0.47609,0.602123 -0.47609,0.60212 0.12249,-0.661458 c 0.38967,-2.104345 0.43174,-2.201389 0.7642,-1.763062 0.21773,0.287068 1.6687802,0.646867 4.6170102,1.144828 2.36471,0.399405 4.29948,0.813292 4.29948,0.91975 0,0.106458 -1.9557,1.498513 -4.34599,3.093456 l -4.3459902,2.899894 2.0308802,0.285588 c 4.83818,0.680355 4.86223,0.680993 5.25948,0.139774 0.32822,-0.44718 0.34914,-0.371403 0.18994,0.688105 -0.17883,1.190146 -0.64041,2.099294 -0.64041,1.261372 z m 1.98308,-10.519693 c 0.29301,-0.474089 -0.22157,-0.988785 -3.83516,-3.836046 -1.96453,-1.547915 -3.60435,-2.90423 -3.64405,-3.014035 -0.0397,-0.109802 2.06762,-0.31641 4.68292,-0.459124 4.11099,-0.224334 4.83468,-0.329403 5.34256,-0.775665 0.54997,-0.483238 0.57608,-0.485061 0.40918,-0.02858 -0.0981,0.268181 -0.25021,0.774197 -0.33813,1.124479 -0.15088,0.601162 -0.26989,0.636878 -2.12209,0.636878 -1.89701,0 -1.97145,0.02418 -2.23952,0.727605 -0.67824,1.779698 -0.62391,2.048271 0.59627,2.947635 0.67038,0.494123 1.35098,0.794959 1.63324,0.721921 0.3666,-0.09486 0.44229,-0.01765 0.3122,0.318498 -0.0944,0.244043 -0.2378,0.771138 -0.31856,1.171321 -0.0808,0.400182 -0.25804,0.727604 -0.39396,0.727604 -0.13592,0 -0.17412,-0.118121 -0.0849,-0.262488 z m -2.25904,-5.822929 c 0.0102,-0.322768 -0.31422,-0.380066 -1.73715,-0.306856 l -1.74964,0.09002 1.41836,1.020087 1.41835,1.020091 0.3188,-0.713232 c 0.17533,-0.392279 0.32441,-0.891829 0.33128,-1.11011 z M 150.1648,66.278496 c -0.11872,-0.582084 -0.32344,-1.266693 -0.45493,-1.521354 -0.24578,-0.47602 0.14179,-0.682591 0.42399,-0.225984 0.0806,0.130371 0.53408,0.148662 1.0078,0.04065 1.09993,-0.250801 6.9114,-1.934247 7.05526,-2.043742 0.26795,-0.203954 -0.60767,-2.381065 -1.12297,-2.792121 -0.57291,-0.457012 -0.57283,-0.457139 0.28682,-0.463021 0.56599,-0.0039 0.8599,0.121512 0.8599,0.366837 0,0.204996 0.42371,1.830758 0.94159,3.612798 0.96329,3.314782 0.95224,3.671448 -0.11409,3.683346 -0.28132,0.0031 -0.29386,-0.07941 -0.0557,-0.366397 0.35127,-0.423257 -0.11632,-2.804552 -0.5507,-2.804552 -0.39098,0 -6.92172,1.892996 -7.41254,2.148591 -0.2445,0.127326 -0.49045,0.49965 -0.54656,0.827392 -0.0767,0.447871 -0.15564,0.332999 -0.31789,-0.462441 z m -2.38689,-7.375999 c -0.73353,-0.733533 -1.40751,-2.710397 -1.04489,-3.064811 0.13357,-0.130554 0.60005,-0.318175 1.03661,-0.416939 0.79337,-0.179482 0.79346,-0.179355 0.19844,0.260864 -0.81182,0.600609 -0.7869,1.830392 0.0541,2.67141 0.35718,0.357188 0.81738,0.649433 1.02265,0.649433 0.82582,0 1.73968,-1.104389 2.29519,-2.773696 1.14401,-3.437741 3.78167,-4.155104 5.04524,-1.372145 0.6569,1.446805 0.64091,1.621137 -0.18317,1.996612 -0.81434,0.371041 -1.07798,0.251828 -0.50137,-0.226713 0.94882,-0.78745 0.11008,-2.651141 -1.19313,-2.651141 -0.92691,0 -1.35262,0.585057 -1.94393,2.671532 -0.5705,2.013075 -1.47397,2.884718 -2.99006,2.884718 -0.87558,0 -1.32351,-0.156932 -1.7957,-0.629124 z M 21.761817,57.348808 c 0.0378,-0.188843 -1.46621,-1.093144 -3.50573,-2.107903 -3.47117,-1.727063 -4.49792,-2.07635 -4.49792,-1.530117 0,0.14552 -0.12107,0.264583 -0.26904,0.264583 -0.14797,0 0.0326,-0.595313 0.40133,-1.322917 0.7134,-1.407816 0.88946,-1.593424 0.8305,-0.875495 -0.0387,0.470836 1.64544,1.413896 5.34092,2.990768 2.17738,0.929097 2.43366,0.867574 3.10789,-0.746088 0.3423,-0.819235 0.3385,-0.993154 -0.0341,-1.56178 -0.40653,-0.620445 -0.40217,-0.63073 0.14363,-0.338627 0.3096,0.16569 0.63158,0.480219 0.71551,0.698952 0.15918,0.414801 -1.75382,4.830233 -2.10073,4.848757 -0.10914,0.0058 -0.16867,-0.138232 -0.13229,-0.320133 z M 144.56306,52.325577 c -0.45435,-0.896627 -0.55327,-1.261827 -0.28044,-1.035399 0.35959,0.298434 0.80203,0.155374 3.01258,-0.974121 4.25009,-2.171603 4.81551,-2.528166 4.8961,-3.087561 0.0598,-0.415139 0.228,-0.272605 0.78049,0.661458 0.69304,1.171686 0.77546,1.717831 0.1675,1.109872 -0.23702,-0.237022 -1.09294,0.100618 -3.63361,1.433362 -3.68105,1.930947 -4.28088,2.359048 -4.07115,2.905585 0.0785,0.204607 0.0725,0.372015 -0.0134,0.372015 -0.0859,0 -0.47201,-0.623345 -0.85808,-1.385211 z m -2.2163,-4.611526 c 7.9e-4,-0.615825 0.60974,-3.779572 1.771,-9.202668 0.15752,-0.735613 0.0114,-0.658487 -2.58851,1.366631 -2.23513,1.740958 -2.74312,2.262897 -2.69011,2.763988 l 0.0653,0.617744 -0.53589,-0.661458 c -0.94142,-1.16201 -1.10065,-1.550514 -0.58239,-1.420969 0.27911,0.06977 1.84969,-0.871831 4.01523,-2.407221 1.95623,-1.386996 3.6609,-2.52181 3.78814,-2.52181 0.12724,0 0.16744,0.208359 0.0893,0.463021 -0.32444,1.057788 -2.01519,9.44422 -1.94591,9.652066 0.0414,0.124237 1.30216,-0.691065 2.80167,-1.811782 2.49075,-1.861566 2.71152,-2.096855 2.55447,-2.722547 -0.20133,-0.802198 -0.1216,-0.742095 0.78201,0.589452 0.7482,1.102529 0.86149,1.456349 0.32329,1.009685 -0.34342,-0.28501 -1.7484,0.593264 -6.59199,4.120731 l -1.25677,0.915276 0.001,-0.750139 z M 27.110607,47.017028 c -0.14056,-0.320254 -1.72649,-1.568831 -3.52428,-2.774611 -2.60014,-1.743917 -3.34425,-2.12964 -3.63802,-1.885831 -0.57806,0.479742 -0.43441,-0.06882 0.30169,-1.152089 0.7549,-1.110927 0.87352,-1.186706 0.82096,-0.524438 -0.0251,0.316706 1.06804,1.20733 3.45944,2.818439 2.95262,1.989206 3.55938,2.302976 3.9026,2.018123 0.22353,-0.18551 0.40642,-0.26847 0.40642,-0.184354 0,0.123783 -1.19285,1.98665 -1.41323,2.20703 -0.033,0.03301 -0.17502,-0.202015 -0.31558,-0.522269 z m 3.2289,-4.377658 c 0.1921,-0.734587 -6.15219,-6.018332 -6.6902,-5.571826 -0.20841,0.172966 -0.42932,0.264088 -0.49092,0.202493 -0.0616,-0.0616 0.63472,-0.935812 1.54735,-1.942703 1.49841,-1.653153 1.757,-1.830713 2.66622,-1.830713 1.13316,0 2.13678,0.90183 2.41371,2.168912 0.3243,1.483828 0.21639,1.433504 2.86443,1.335849 1.98631,-0.07325 2.59645,-0.192754 3.04123,-0.595664 0.30603,-0.277215 0.55642,-0.378847 0.55642,-0.225846 0,0.153001 -0.43927,0.663866 -0.97615,1.135258 l -0.97616,0.857076 -2.30288,-0.149196 c -2.18973,-0.141867 -2.33247,-0.117687 -2.90544,0.492204 -0.33141,0.352772 -0.55249,0.67926 -0.49128,0.725525 0.0612,0.04627 0.68674,0.545443 1.39006,1.109281 1.09675,0.879229 1.35097,0.980072 1.78594,0.70843 0.73057,-0.456248 0.62744,-0.156946 -0.35273,1.023697 -0.94274,1.135554 -1.27579,1.307454 -1.0796,0.557223 z m -1.26174,-4.82405 c 0.60115,-0.98851 0.48332,-1.54818 -0.5304,-2.519389 -1.01187,-0.969433 -2.45793,-1.0233 -3.19032,-0.11884 -0.27708,0.342175 -0.4701,0.710424 -0.42893,0.818329 0.14155,0.371076 2.98556,2.622741 3.31988,2.628427 0.18404,0.0031 0.55743,-0.360707 0.82977,-0.808527 z m 105.588353,0.501787 c -0.5049,-0.628277 -0.70569,-1.035854 -0.46476,-0.943401 0.63069,0.24202 6.64237,-5.267568 6.46939,-5.929071 -0.19048,-0.728401 0.11809,-0.56133 1.12518,0.609195 0.85982,0.999366 0.87316,1.044601 0.26458,0.897395 -0.54182,-0.131061 -1.111,0.2897 -3.68252,2.722266 -2.69807,2.552274 -3.00075,2.926567 -2.67958,3.313544 0.19913,0.239937 0.24834,0.436253 0.10936,0.436253 -0.13899,0 -0.65273,-0.497782 -1.14165,-1.106181 z M 36.623617,35.475734 c 0.012,-0.289634 -1.15296,-1.82448 -2.71027,-3.570859 -2.47607,-2.776707 -2.78509,-3.037078 -3.30729,-2.786666 -0.31681,0.151921 0.17118,-0.431707 1.08442,-1.296956 0.91325,-0.865248 1.97335,-1.65171 2.35579,-1.747696 1.52422,-0.382556 2.99523,1.015264 2.99523,2.846207 v 0.924202 l 1.67532,0.291746 c 2.08544,0.363162 3.7984,0.374756 4.01322,0.02716 0.0899,-0.14552 0.30533,-0.259744 0.47864,-0.25383 0.17331,0.0059 -0.0971,0.363101 -0.60093,0.79375 -1.04409,0.892442 -1.84433,0.966938 -4.42897,0.412295 -1.60494,-0.344408 -1.65389,-0.338228 -2.23694,0.282408 l -0.59611,0.634521 1.21001,1.210003 c 1.10996,1.109964 1.26209,1.183145 1.84007,0.885132 0.46211,-0.238276 0.35127,-0.03413 -0.41582,0.765839 -1.17296,1.223243 -1.38666,1.315053 -1.35637,0.582744 z m -0.69034,-4.794004 c 0.88779,-0.827103 0.75514,-1.896938 -0.35619,-2.8727 -1.10801,-0.972844 -1.96176,-1.039622 -2.88736,-0.225846 l -0.67712,0.595312 1.34574,1.521355 c 0.74016,0.836744 1.49202,1.521354 1.67081,1.521354 0.17878,0 0.58564,-0.242763 0.90412,-0.539475 z m 95.922703,4.479755 -0.82222,-0.822219 1.50787,-2.10513 c 2.8451,-3.972029 2.90402,-3.857914 -1.03554,-2.005362 -1.89203,0.889712 -3.5093,1.54841 -3.59394,1.463773 -0.0846,-0.08464 0.24419,-1.773809 0.73073,-3.753715 l 0.88461,-3.599833 -2.1998,2.184333 c -1.88616,1.872898 -2.17664,2.278639 -2.03738,2.845789 l 0.16243,0.661459 -0.88009,-0.7917 c -0.48406,-0.435435 -0.99917,-0.895302 -1.14469,-1.021924 -0.15342,-0.133503 -0.007,-0.152188 0.34929,-0.04448 0.52903,0.160075 1.06782,-0.263036 3.89833,-3.06134 1.80646,-1.785898 3.33913,-3.192423 3.40594,-3.12561 0.0668,0.06681 -0.3531,2.008305 -0.93314,4.314425 -0.58004,2.306119 -1.01974,4.222522 -0.9771,4.258672 0.0426,0.03615 1.79866,-0.747821 3.90228,-1.742162 2.10361,-0.994341 3.87875,-1.753902 3.94474,-1.687915 0.066,0.06599 -0.7763,1.465713 -1.87174,3.110495 -1.09544,1.644785 -2.19462,3.382902 -2.44262,3.86248 -0.42556,0.822941 -0.42521,0.900359 0.006,1.377072 0.75777,0.837326 0.0301,0.567189 -0.85417,-0.317112 z M 43.829997,29.422692 c 0.17181,-0.656998 -4.41407,-7.078152 -5.01948,-7.028281 -0.69644,0.05737 -0.51573,-0.239272 0.62764,-1.030243 1.03571,-0.716488 1.05128,-0.718743 0.91353,-0.132292 -0.10665,0.454067 0.4186,1.355242 2.19831,3.771621 2.09732,2.847601 2.4157,3.169263 3.08757,3.119384 0.80246,-0.05957 0.7797,-0.02537 -0.70706,1.0624 -1.1505,0.841751 -1.26501,0.866455 -1.10051,0.237411 z m 75.323133,-3.746363 c -1.1899,-0.283558 -5.40642,-2.921791 -4.66971,-2.921791 0.46599,0 0.97556,-0.698824 2.62485,-3.59971 1.78625,-3.141807 2.0052,-3.665984 1.72122,-4.120706 -0.34074,-0.54561 -0.41855,-0.581615 3.14326,1.454445 1.23709,0.707163 2.34564,1.741753 2.80175,2.614811 1.20504,2.306621 -0.53542,5.789637 -3.27298,6.549934 -1.09468,0.304022 -1.16626,0.304724 -2.34839,0.02302 z m 2.54264,-0.931001 c 0.41528,-0.214753 1.01885,-0.817271 1.34125,-1.338928 1.60917,-2.603701 0.95699,-5.076041 -1.78704,-6.774409 -0.47029,-0.291077 -0.96144,-0.463495 -1.09143,-0.383153 -0.36566,0.225988 -3.74205,6.385467 -3.74205,6.826538 0,0.872667 2.02317,2.056357 3.51887,2.058782 0.55293,9e-4 1.34511,-0.174077 1.7604,-0.38883 z m -74.620833,-0.08454 c -2.00825,-1.290897 -2.8728,-3.872192 -1.99807,-5.965699 0.4639,-1.110266 2.29686,-2.681376 3.70329,-3.174241 0.6015,-0.210787 1.27822,-0.45899 1.50382,-0.55156 0.29084,-0.119342 0.53978,0.103457 0.85561,0.765763 0.48042,1.007449 0.3577,1.144439 -0.4669,0.52116 -0.64606,-0.488331 -1.70733,-0.302593 -3.21186,0.562123 -1.13121,0.650152 -1.95727,1.950979 -1.94685,3.065778 0.009,0.991897 0.90525,2.699469 1.82055,3.46964 1.78405,1.50118 4.07075,1.543052 5.74241,0.105149 l 0.697,-0.59953 -0.86278,-1.528757 c -0.66464,-1.177674 -0.97576,-1.499212 -1.35476,-1.400102 -0.91032,0.238055 -0.50203,-0.240643 0.70572,-0.827414 1.41087,-0.685453 1.6273,-0.7197 1.18572,-0.187628 -0.26712,0.321855 -0.16374,0.714222 0.56292,2.136517 l 0.89012,1.742257 -0.90633,0.765786 c -1.33257,1.125926 -2.615,1.661756 -4.25305,1.777018 -1.25774,0.0885 -1.61958,-0.0033 -2.66656,-0.67626 z m 9.54649,-2.893354 c 0.49728,-0.632183 0.51746,-0.932336 0.35398,-5.265603 -0.11634,-3.083865 -0.0839,-4.595205 0.0987,-4.595205 0.14964,0 1.61035,1.491178 3.24602,3.313729 2.97322,3.312923 3.75682,3.995122 4.24349,3.694349 0.14251,-0.08808 0.25911,-0.05403 0.25911,0.07566 0,0.129693 -0.42484,0.366194 -0.9441,0.525558 -0.91188,0.279864 -0.97724,0.253065 -1.91534,-0.7853 -0.53419,-0.591278 -1.0955,-1.244975 -1.24736,-1.45266 -0.23691,-0.324002 -0.46269,-0.308564 -1.59039,0.108744 -1.15229,0.42641 -1.32423,0.588116 -1.39512,1.312027 -0.11608,1.185348 0.32352,2.6192 0.77026,2.512402 0.73893,-0.176648 -0.0828,0.344606 -1.22944,0.779849 l -1.17716,0.446844 z m 2.35303,-4.863799 c 0.46489,-0.162062 0.81008,-0.399637 0.76709,-0.527945 -0.11027,-0.32907 -1.9024,-2.594722 -2.06255,-2.60752 -0.0728,-0.0058 -0.0924,0.763585 -0.0436,1.709776 0.0488,0.94619 0.17986,1.720346 0.29125,1.720346 0.11139,0 0.58289,-0.132596 1.04778,-0.294657 z m 52.944133,5.103681 -0.92604,-0.443399 0.0769,-1.87847 0.0769,-1.87847 -1.31889,-0.548106 -1.31889,-0.548108 -0.96853,1.181967 c -0.58209,0.710356 -0.91939,1.369891 -0.84537,1.652949 0.11637,0.444981 0.0584,0.447961 -1.05062,0.05399 -0.88159,-0.313192 -1.03322,-0.43855 -0.60914,-0.503577 0.33626,-0.05156 1.86932,-1.585019 3.79028,-3.791252 l 3.22563,-3.704672 0.13229,4.888752 c 0.11703,4.324663 0.19045,4.952924 0.63632,5.444898 0.59636,0.65803 0.36014,0.677303 -0.9009,0.0735 z m -0.80165,-6.594961 -0.008,-1.785938 -1.04201,1.190625 c -0.57311,0.654844 -1.00885,1.301485 -0.96832,1.43698 0.057,0.190488 0.98134,0.626333 1.95997,0.924141 0.0364,0.01107 0.0626,-0.783543 0.0583,-1.765808 z m -44.162193,2.918044 c 0.2768,-0.44323 0.21269,-1.013135 -0.38381,-3.411798 -1.38024,-5.5503194 -1.08509,-5.0819794 -2.88729,-4.581526 -0.62241,0.172838 -1.09584,0.500578 -1.24,0.85842 -0.20139,0.499896 -0.23548,0.451198 -0.24996,-0.357069 -0.015,-0.835225 0.0615,-0.9421354 0.71083,-0.9937884 0.40019,-0.03183 2.03729,-0.40267 3.63802,-0.824079 1.60073,-0.42141 2.92344,-0.748111 2.93934,-0.726004 0.0159,0.02211 0.1082,0.370494 0.20509,0.774192 0.15976,0.665702 0.13034,0.705383 -0.31627,0.426473 -0.31676,-0.197818 -0.93696,-0.240861 -1.73854,-0.120656 -0.99887,0.14979 -1.21994,0.27516 -1.11415,0.6318604 0.0726,0.244746 0.44042,1.69515 0.81741,3.223118 1.02562,4.156937 1.1588,4.497917 1.7568,4.497917 0.80539,0 0.34995,0.439604 -0.62502,0.603287 -0.47648,0.07999 -1.08647,0.232366 -1.35554,0.338606 -0.43413,0.171409 -0.4518,0.133238 -0.15691,-0.338953 z m 30.67988,-1.859711 c -0.49064,-0.691224 -1.81605,-2.605832 -2.94536,-4.254684 -2.34744,-3.4274044 -2.05458,-3.5674624 -2.63599,1.260629 -0.27627,2.294124 -0.26236,2.523997 0.1719,2.841537 0.70051,0.512224 0.40154,0.570111 -1.07639,0.208412 -0.7276,-0.178068 -1.11682,-0.337905 -0.86493,-0.355192 0.55633,-0.03818 0.64266,-0.363582 1.35886,-5.121815 0.31042,-2.0623554 0.67722,-3.7550074 0.81511,-3.7614474 0.13789,-0.0064 1.50711,1.858183 3.04271,4.1436084 1.5356,2.285426 2.86072,4.16066 2.94471,4.167188 0.084,0.0065 0.29861,-1.148991 0.47694,-2.567819 0.17833,-1.418828 0.39057,-2.965645 0.47164,-3.4373704 0.12455,-0.724711 0.0506,-0.896446 -0.47694,-1.107708 -0.59266,-0.237336 -0.59581,-0.250877 -0.0621,-0.266797 0.30923,-0.0092 0.93619,0.05802 1.393253,0.149432 0.69347,0.138695 0.76386,0.215331 0.42528,0.463021 -0.2752,0.20132 -0.61633,1.6162814 -1.060253,4.3978594 -0.35999,2.255573 -0.65554,4.190339 -0.65679,4.299479 -0.006,0.494522 -0.5009,0.09796 -1.32165,-1.058333 z m -23.88219,0.575666 c 0.43468,-0.206006 0.41723,-1.338966 -0.0739,-4.800989 -0.54094,-3.8129504 -0.60098,-4.0429064 -1.0556,-4.0429064 -0.21551,0 -0.39183,-0.119062 -0.39183,-0.264583 0,-0.145521 0.40698,-0.264583 0.9044,-0.264583 0.49742,0 1.10452,-0.07679 1.34911,-0.170653 0.38739,-0.148655 0.40151,-0.101467 0.10953,0.366067 -0.26817,0.429411 -0.2711,1.005748 -0.0147,2.8826324 0.68081,4.983085 0.85134,5.67816 1.45256,5.920868 0.53884,0.21752 0.54046,0.228861 0.0355,0.247643 -0.29104,0.01083 -1.00541,0.07898 -1.5875,0.151464 -0.58208,0.07248 -0.9095,0.06125 -0.7276,-0.02496 z m 7.94844,-0.638745 c -1.9036,-0.57383 -3.38991,-2.619751 -3.37857,-4.650664 0.008,-1.371332 0.77411,-3.0085904 1.82066,-3.8892024 3.12887,-2.632772 7.96311,-0.553494 7.96311,3.4250504 0,1.810232 -0.46546,2.916608 -1.67314,3.97697 -1.3902,1.220607 -3.09646,1.630887 -4.73206,1.137846 z m 3.68772,-0.957572 c 1.91509,-1.212405 2.03953,-5.332614 0.21614,-7.1560104 -1.59022,-1.590216 -4.14594,-1.390183 -5.3658,0.419977 -0.70655,1.048444 -0.82486,3.4745284 -0.23675,4.8547664 0.94601,2.220185 3.46266,3.099155 5.38641,1.881267 z"
       id="path37719" />
  </g>
  <metadata
     id="metadata41698">
    <rdf:RDF>
      <cc:Work
         rdf:about="">
        <dc:title>NIA Logo 2020</dc:title>
        <dc:creator>
          <cc:Agent>
            <dc:title>Ransey S. Cataran</dc:title>
          </cc:Agent>
        </dc:creator>
        <dc:publisher>
          <cc:Agent>
            <dc:title>ISDS</dc:title>
          </cc:Agent>
        </dc:publisher>
        <dc:contributor>
          <cc:Agent>
            <dc:title>NIA PAIS</dc:title>
          </cc:Agent>
        </dc:contributor>
      </cc:Work>
    </rdf:RDF>
  </metadata>
</svg>
